<svg xmlns="http://www.w3.org/2000/svg" viewBox="0 0 375.05 126.97"><defs><style>.cls-1{fill:#fff;}</style></defs><title>Asset 1</title><g id="Layer_2" data-name="Layer 2"><g id="Untitled_Artwork_2_Image" data-name="Untitled_Artwork 2 Image"><path class="cls-1" d="M59,50.84a3.74,3.74,0,0,1-2.25-3.07A44.78,44.78,0,0,1,56.43,43c-.07-3.2,0-6.4-.14-9.59a30.22,30.22,0,0,0-.87-4.32c-1.11.69-1.87,1.07-2.52,1.58a37.92,37.92,0,0,0-7.68,8.84A127.81,127.81,0,0,0,32.33,64.35a151.39,151.39,0,0,0-7.94,25.88A92.84,92.84,0,0,0,23,102.34c-.18,3,.81,4.16,3.88,4.31a57.56,57.56,0,0,0,9.55-.4,119.5,119.5,0,0,0,23.74-5.75c3.3-1.11,6.35-3,9.51-4.5a8.13,8.13,0,0,1,1.24-.7c.49-.12,1.22-.2,1.5.06a1.55,1.55,0,0,1,.08,1.47,43.22,43.22,0,0,1-4.33,6.58,72.48,72.48,0,0,1-29.57,19.82,93.45,93.45,0,0,1-11,3.14,22.77,22.77,0,0,1-10.48,0c-9-2.15-14.06-8.07-16.18-16.8-1.61-6.64-.67-13.22.85-19.72A150.59,150.59,0,0,1,15.93,53.28,142.42,142.42,0,0,1,30.87,30.44c4.09-5.05,8.55-9.73,14.3-13a20,20,0,0,1,8.07-2.85,11.57,11.57,0,0,1,12.92,9.56,21.23,21.23,0,0,1-.6,10.21c-1.3,4.69-2.87,9.31-4.34,14A3.53,3.53,0,0,1,59,50.84Z"/><path class="cls-1" d="M182.7,74.78c-1.26,2-2.63,3.94-3.78,6A47.14,47.14,0,0,0,174,93.73c-.84,3.81-2.12,7.53-3.29,11.26a7.36,7.36,0,0,1-1.45,2.45,4.28,4.28,0,0,1-7.44-1c-.21-.43-.33-.89-.57-1.55l-1.76.59a57.25,57.25,0,0,1-5.89,2,12.85,12.85,0,0,1-14.78-8.24,24.75,24.75,0,0,1-1.4-8.72c0-3.92.1-7.84.16-11.76a7.32,7.32,0,0,0-.34-2.61c-.49.64-1,1.26-1.46,1.93a59.75,59.75,0,0,0-7.25,16.38q-1.65,5.88-3.34,11.76a9.4,9.4,0,0,1-.67,1.79,4.27,4.27,0,0,1-4.33,2.4,3.8,3.8,0,0,1-3.53-3.38,15.51,15.51,0,0,1,0-4.76,107,107,0,0,1,2.25-10.79c2.16-7.86,4.49-15.67,6.82-23.47a15.21,15.21,0,0,1,1.79-3.64,3.72,3.72,0,0,1,3.79-2c1.81.29,2.42,1.65,2.58,3.81.81-.94,1.33-1.57,1.88-2.18,3.55-4,8.68-3.75,12,.44a21.65,21.65,0,0,1,3.3,6.88C152.9,77,153.54,83,154,89c.12,1.41.28,2.83.42,4.16,2.11.46,7.84-.12,9.09-1a4,4,0,0,0,1.1-2c2-6.57,3.89-13.18,6-19.73a93.08,93.08,0,0,1,3.44-8.94,10.16,10.16,0,0,1,2.32-3.27c1.59-1.48,3.32-.84,3.62,1.29a32.72,32.72,0,0,1,0,4.35c.7-.49,1.21-.81,1.68-1.17,4.25-3.29,9.37-2.59,12.66,1.68,2.51,3.26,3.67,7.09,4.63,11,1,4,1.75,8.12,2.62,12.19.13.61.31,1.22.54,2.15a19.82,19.82,0,0,0,2.45-1q10.68-6,21.32-12c1.46-.83,2.82-1.83,4.28-2.63.57-.31,1.52-.63,1.93-.37.91.56.53,1.57.12,2.36-1.29,2.48-2.59,5-3.95,7.4-5.41,9.69-13.63,16.63-22.65,22.69-4.5,3-9.38,3.59-14.26.72a12.84,12.84,0,0,1-5.74-6.57,28.11,28.11,0,0,1-1.91-7.63c-.33-4.93-.15-9.9-.19-14.86,0-.93-.07-1.86-.1-2.78Z"/><path class="cls-1" d="M299.54,90.05a81.71,81.71,0,0,0,19.32-3.38c1.21-.38,2.44-.75,3.68-1,.39-.09,1,0,1.21.23a1.35,1.35,0,0,1-.09,1.26,21.52,21.52,0,0,1-2.59,2.81,48,48,0,0,1-15.53,9.27,38.22,38.22,0,0,1-12.88,2.45,16.93,16.93,0,0,1-7.93-1.55c-5.1-2.6-7.24-7-7.46-12.5a26.88,26.88,0,0,1,2.46-11.39c2.54-6.13,6-11.69,11.16-15.92a26.49,26.49,0,0,1,6.34-3.75,8.58,8.58,0,0,1,8.28.51,5.71,5.71,0,0,1,2.43,6.86c-1,2.26-2.34,2.81-4.49,1.61a1.69,1.69,0,0,0-2.34.31,26,26,0,0,0-3,3.69,38.59,38.59,0,0,0-5.64,16.4c-.3,3,.13,3.56,3,3.92C296.82,90,298.18,90,299.54,90.05Z"/><path class="cls-1" d="M111.72,70.62c-3-7.88-11-11.46-18.23-8.85a9.24,9.24,0,0,1-2.32.5,5.55,5.55,0,0,0-4.32,2.25,50.76,50.76,0,0,0-4,6.49,125.3,125.3,0,0,0-7.91,21.82,56.81,56.81,0,0,0-2.39,13.23,52,52,0,0,0,.7,5.45c1.73,7.55,8.85,11.27,16.08,8.5a21.32,21.32,0,0,0,7.6-5.31A60.45,60.45,0,0,0,112.46,86,25.77,25.77,0,0,0,111.72,70.62ZM98.4,86A51.31,51.31,0,0,1,89,100.33a3.8,3.8,0,0,1-.74.49l-.58-.24c.41-3.48.63-7,1.3-10.42,1.07-5.48,2.46-10.89,3.69-16.34.33-1.47,1-2.48,2.66-2.6s3.48,0,4.43,1.68a7.92,7.92,0,0,1,.94,3.39C100.88,79.73,99.78,82.92,98.4,86Z"/><path class="cls-1" d="M347.18,98.52c2.76-1.44,5.15-2.87,7.69-4,3.29-1.43,6.68-2.64,10.07-3.83a8.37,8.37,0,0,1,2.56,0c.44,2.39-.56,4.28-1.43,6.11a42,42,0,0,1-15.4,17.64,16.68,16.68,0,0,1-4.31,2c-6.4,1.87-12.16-1.45-13.9-7.89a32.47,32.47,0,0,1-.66-11.2,295.63,295.63,0,0,1,4.66-34.68c.48-2.34,1.05-4.67,1.57-7,.22-1,.42-2,.68-3.24-2.51,0-4.57.89-6.71,1.35-1.4.31-2.78.76-4.19,1a3.44,3.44,0,0,1-2.63-6.32,35,35,0,0,1,4.54-2.66q5.2-2.45,10.51-4.66a3.86,3.86,0,0,0,2.41-2.69c1.85-6,3.64-11.92,5.78-17.77a81.46,81.46,0,0,1,7.65-16.22,17.61,17.61,0,0,1,2.53-3.17A5.12,5.12,0,0,1,361.09.07c2.45-.45,4,1.29,3.45,3.75A7.55,7.55,0,0,1,364.18,5,171.51,171.51,0,0,0,355,33.16c-.19.77-.33,1.55-.58,2.76,1.78-.42,3.28-.79,4.78-1.12,2.34-.52,4.66-1.15,7-1.48A7.71,7.71,0,0,1,372.71,35a6.52,6.52,0,0,1-.84,10.61,12.62,12.62,0,0,1-5.43,1.69c-4.29.43-8.56,1.08-12.85,1.57A2.58,2.58,0,0,0,351,51.39c-.68,5-1.6,10-2.15,15A265.45,265.45,0,0,0,347,97C347,97.35,347.09,97.75,347.18,98.52Z"/><path class="cls-1" d="M269.16,95.13c-.54-1.26-2-.59-3-.42-2.91.47-5.82,1-8.61,1.45-2.64-.39-5.11-.64-7.52-1.16s-2.91-2.78-1.23-4.53a15.9,15.9,0,0,1,1.48-1.21,72.2,72.2,0,0,0,12-12,29,29,0,0,0,5-8.43c1.72-5.27-1.74-10.3-7.3-10.31a15.94,15.94,0,0,0-5.13,1A25.73,25.73,0,0,0,246.17,65c-6.71,6.09-11.7,13.31-14.07,22.15-.44,1.65-.89,2.91-2.68,3.51a3.27,3.27,0,0,0-2.1,3.46,3.79,3.79,0,0,0,2.22,3.45,6,6,0,0,0,1.59.52,2.27,2.27,0,0,1,1.78,1.38c3.28,6.61,8.86,9.54,16,9.29,8.22-.3,14.54-4.39,19.39-10.86C268.86,97.13,269.45,95.82,269.16,95.13ZM247.4,82.42a10.72,10.72,0,0,1,.36-1.51,31,31,0,0,1,5.43-9.64,10.46,10.46,0,0,1,3.9-3.07,1.79,1.79,0,0,1,2.11.23,6.75,6.75,0,0,1-1.13,4.16,30.86,30.86,0,0,1-7.88,8.27c-.8.63-1.65,1.19-2.47,1.79Z"/></g></g></svg>