<?xml version="1.0" encoding="UTF-8"?>
<svg width="547px" height="225px" viewBox="0 0 547 225" version="1.1" xmlns="http://www.w3.org/2000/svg" xmlns:xlink="http://www.w3.org/1999/xlink">
    <!-- Generator: Sketch 57.1 (83088) - https://sketch.com -->
    <title>tagline</title>
    <desc>Created with Sketch.</desc>
    <g id="Page-1" stroke="none" stroke-width="1" fill="none" fill-rule="evenodd">
        <g id="home" transform="translate(-427.000000, -210.000000)" fill="#FFFFFF">
            <g id="hero">
                <g id="tagline" transform="translate(427.000000, 210.000000)">
                    <path d="M244.4,202.92 C244.4,205.426679 243.606675,207.833322 242.02,210.14 C240.433325,212.446678 237.360023,215.506648 232.8,219.32 C232.746666,219.373334 232.72,219.413333 232.72,219.44 C232.72,219.466667 232.733333,219.48 232.76,219.48 L242.2,219.48 C242.813336,219.48 243.346664,219.699998 243.8,220.14 C244.253336,220.580002 244.48,221.106664 244.48,221.72 C244.48,222.333336 244.253336,222.866664 243.8,223.32 C243.346664,223.773336 242.813336,224 242.2,224 L227.52,224 C226.906664,224 226.380002,223.773336 225.94,223.32 C225.499998,222.866664 225.28,222.333336 225.28,221.72 C225.28,220.199992 225.853328,218.986671 227,218.08 C231.613356,214.399982 234.706659,211.533344 236.28,209.48 C237.853341,207.426656 238.64,205.426676 238.64,203.48 C238.64,200.519985 237.053349,199.04 233.88,199.04 C232.253325,199.04 230.280012,199.493329 227.96,200.4 C227.453331,200.613334 226.980002,200.573335 226.54,200.28 C226.099998,199.986665 225.88,199.586669 225.88,199.08 L225.88,198.4 C225.88,197.706663 226.073331,197.073336 226.46,196.5 C226.846669,195.926664 227.359997,195.546668 228,195.36 C230.266678,194.719997 232.493322,194.4 234.68,194.4 C237.800016,194.4 240.199992,195.146659 241.88,196.64 C243.560008,198.133341 244.4,200.226653 244.4,202.92 Z M264.56,201.16 C263.653329,199.559992 262.266676,198.76 260.4,198.76 C258.533324,198.76 257.146671,199.559992 256.24,201.16 C255.333329,202.76 254.88,205.506647 254.88,209.4 C254.88,213.293353 255.333329,216.039992 256.24,217.64 C257.146671,219.240008 258.533324,220.04 260.4,220.04 C262.266676,220.04 263.653329,219.240008 264.56,217.64 C265.466671,216.039992 265.92,213.293353 265.92,209.4 C265.92,205.506647 265.466671,202.76 264.56,201.16 Z M268.8,220.84 C266.959991,223.213345 264.160019,224.4 260.4,224.4 C256.639981,224.4 253.833343,223.213345 251.98,220.84 C250.126657,218.466655 249.2,214.65336 249.2,209.4 C249.2,204.14664 250.126657,200.333345 251.98,197.96 C253.833343,195.586655 256.639981,194.4 260.4,194.4 C264.160019,194.4 266.966657,195.586655 268.82,197.96 C270.673343,200.333345 271.6,204.14664 271.6,209.4 C271.6,214.65336 270.666676,218.466655 268.8,220.84 Z M295.6,202.92 C295.6,205.426679 294.806675,207.833322 293.22,210.14 C291.633325,212.446678 288.560023,215.506648 284,219.32 C283.946666,219.373334 283.92,219.413333 283.92,219.44 C283.92,219.466667 283.933333,219.48 283.96,219.48 L293.4,219.48 C294.013336,219.48 294.546664,219.699998 295,220.14 C295.453336,220.580002 295.68,221.106664 295.68,221.72 C295.68,222.333336 295.453336,222.866664 295,223.32 C294.546664,223.773336 294.013336,224 293.4,224 L278.72,224 C278.106664,224 277.580002,223.773336 277.14,223.32 C276.699998,222.866664 276.48,222.333336 276.48,221.72 C276.48,220.199992 277.053328,218.986671 278.2,218.08 C282.813356,214.399982 285.906659,211.533344 287.48,209.48 C289.053341,207.426656 289.84,205.426676 289.84,203.48 C289.84,200.519985 288.253349,199.04 285.08,199.04 C283.453325,199.04 281.480012,199.493329 279.16,200.4 C278.653331,200.613334 278.180002,200.573335 277.74,200.28 C277.299998,199.986665 277.08,199.586669 277.08,199.08 L277.08,198.4 C277.08,197.706663 277.273331,197.073336 277.66,196.5 C278.046669,195.926664 278.559997,195.546668 279.2,195.36 C281.466678,194.719997 283.693322,194.4 285.88,194.4 C289.000016,194.4 291.399992,195.146659 293.08,196.64 C294.760008,198.133341 295.6,200.226653 295.6,202.92 Z M315.76,201.16 C314.853329,199.559992 313.466676,198.76 311.6,198.76 C309.733324,198.76 308.346671,199.559992 307.44,201.16 C306.533329,202.76 306.08,205.506647 306.08,209.4 C306.08,213.293353 306.533329,216.039992 307.44,217.64 C308.346671,219.240008 309.733324,220.04 311.6,220.04 C313.466676,220.04 314.853329,219.240008 315.76,217.64 C316.666671,216.039992 317.12,213.293353 317.12,209.4 C317.12,205.506647 316.666671,202.76 315.76,201.16 Z M320,220.84 C318.159991,223.213345 315.360019,224.4 311.6,224.4 C307.839981,224.4 305.033343,223.213345 303.18,220.84 C301.326657,218.466655 300.4,214.65336 300.4,209.4 C300.4,204.14664 301.326657,200.333345 303.18,197.96 C305.033343,195.586655 307.839981,194.4 311.6,194.4 C315.360019,194.4 318.166657,195.586655 320.02,197.96 C321.873343,200.333345 322.8,204.14664 322.8,209.4 C322.8,214.65336 321.866676,218.466655 320,220.84 Z" id="2020" fill-rule="nonzero" opacity="0.835797991"></path>
                    <g id="Asset-2" opacity="0.797758557" fill-rule="nonzero">
                        <path d="M505.328981,148.254314 C509.453537,146.087404 513.025164,143.935542 516.820952,142.235119 C521.737543,140.083257 526.803574,138.262451 531.869606,136.47174 C533.137287,136.274206 534.4276,136.274206 535.695281,136.47174 C536.352819,140.068209 534.858415,142.912279 533.558283,145.66606 C528.541218,156.53227 520.559693,165.738334 510.544453,172.210708 C508.551116,173.518261 506.382155,174.53174 504.103569,175.220305 C494.53938,178.034278 485.93161,173.038347 483.331346,163.347444 C482.041378,157.828612 481.707705,152.126895 482.345039,146.493699 C483.638679,128.973961 485.969108,111.547535 489.323908,94.3072829 C490.026278,90.7860542 490.818313,87.2798734 491.655179,83.7736926 C491.983948,82.2688939 492.282829,80.7640953 492.671374,78.898145 C488.920419,78.898145 485.841946,80.2374158 482.658864,80.9296232 C480.551753,81.3961107 478.504419,82.0732701 476.382365,82.4344218 C473.921423,83.0508468 471.381725,81.7681202 470.400806,79.4133131 C469.419886,77.058506 470.290833,74.3352074 472.452081,72.9993344 C474.610666,71.4955467 476.878605,70.1575117 479.236677,68.9965701 C484.41728,66.5387323 489.652677,64.2012785 494.942869,61.9842085 C496.734886,61.3185458 498.083472,59.8028079 498.544384,57.9363002 C501.309033,48.9075084 503.984017,39.9991006 507.196987,31.1960286 C510.097291,22.6584615 513.931593,14.4721952 518.629181,6.78819493 C519.70759,5.06021785 520.975867,3.46005936 522.410025,2.01798329 C523.452146,1.04835421 524.739748,0.387058022 526.131092,0.106889034 C529.792383,-0.570270347 532.10871,2.04807926 531.286788,5.74988388 C531.158417,6.35798314 530.973285,6.95251161 530.733858,7.52554625 C524.939023,21.245846 520.329166,35.4434768 516.955448,49.9608675 C516.686455,51.1195624 516.462295,52.2933053 516.088694,54.1141117 C518.748734,53.4820963 520.990341,52.9253208 523.231947,52.4287372 C526.728854,51.6462419 530.195873,50.6982188 533.692779,50.2016353 C537.163635,49.4581639 540.781006,50.3687966 543.496073,52.669505 C545.924107,54.708047 547.219051,57.8060544 546.96955,60.9794087 C546.720049,64.152763 544.957118,67.0069927 542.240773,68.6354184 C539.76328,70.093757 536.98795,70.9635417 534.126157,71.1785281 C527.715161,71.8255915 521.334054,72.8037106 514.923058,73.5410619 C512.805345,73.5493113 511.090631,75.275952 511.082438,77.4083944 C510.081187,84.9323875 508.706335,92.4563806 507.869469,99.9803738 C506.065081,115.242641 505.137007,130.597055 505.089876,145.96702 C505.089876,146.493699 505.209428,147.095619 505.328981,148.254314 Z" id="Path"></path>
                        <path d="M0,151.009365 C0.180594616,140.658472 2.67882014,130.802623 5.59843309,121.006778 C9.19346022,108.796794 14.1400708,97.0233732 20.3469934,85.9037519 C29.4820711,69.6573513 40.5434913,55.0010878 55.7585877,43.7501179 C61.5643296,39.1924347 68.4740015,36.2428602 75.7895405,35.1993807 C83.0283747,34.3593083 89.4545331,36.084457 94.1349436,42.0849743 C97.1872231,46.2002679 98.5099037,51.3394906 97.8220836,56.4112094 C97.1180352,62.23937 96.1134018,68.0275308 94.8121734,73.7527044 C94.3813068,75.5018632 93.5978875,77.1453411 92.509592,78.5831208 C91.8439663,79.5138386 90.7943389,80.0975425 89.6501773,80.1732579 C88.5317135,79.854419 87.6219211,79.0415493 87.1820508,77.9680678 C86.7550418,76.352887 86.5475109,74.6878725 86.5650192,73.017641 C86.3091769,68.7122698 86.2640282,64.3768961 85.8877894,60.0865262 C85.643116,57.9383676 85.1377688,55.8277528 84.3828343,53.8009844 C83.4046135,50.9207361 81.50837,49.7356339 78.5586579,50.3656882 C76.2170571,50.878568 73.9546707,51.7009091 71.8315085,52.810899 C63.7799985,57.0262624 57.7300789,63.551825 52.1617449,70.5274263 C36.6155584,90.0291075 27.4804807,112.336031 22.709773,136.608123 C21.5660071,142.398622 20.3921421,148.189121 20.8586781,154.08463 C21.1591707,157.151618 21.8208897,160.172673 22.8301694,163.085406 C23.8249954,166.160213 26.6215332,168.30312 29.8583098,168.47087 C34.8911459,168.959031 39.9696885,168.655296 44.9078612,167.570792 C54.9350384,165.461184 64.6056033,161.924659 73.6224051,157.069887 C78.1372705,154.714684 82.6521359,152.179465 87.2572986,149.734255 C87.7161169,149.380107 88.2227602,149.092247 88.7622537,148.879181 C89.3185221,148.793279 89.8869782,148.916228 90.3575062,149.224211 C90.6113112,149.610646 90.6723781,150.09208 90.5230512,150.529323 C90.2070171,151.30297 89.7701985,152.021916 89.2287898,152.659507 C78.3329147,165.050575 65.9019853,175.536479 50.6718393,182.27206 C41.6421085,186.292406 32.0856434,188.182569 22.1529396,186.2174 C16.6051647,185.197969 11.5811235,182.299198 7.93111355,178.011692 C2.34773001,171.441126 0.406337886,163.700459 0.0300991027,155.344738 C0,153.85961 0,152.404485 0,151.009365 Z" id="Path"></path>
                        <path d="M469,146.571734 C468.677995,147.419824 468.245777,148.222516 467.714318,148.959438 C454.10121,164.216713 437.357088,173.226914 416.287022,172.986642 C410.519362,173.192206 404.923381,171.017734 400.828582,166.979841 C394.778312,160.82287 393.190117,153.284335 394.354794,145.055017 C395.867361,134.257792 400.541195,124.631894 406.2587,115.516573 C412.378024,105.433181 420.207455,96.4762429 429.400983,89.0415971 C434.589089,84.9569724 440.21584,81.7733678 446.961891,81.1126197 C453.390303,80.4819056 458.775044,82.4641499 462.2842,87.9753899 C465.989991,93.771953 464.97657,99.74872 461.800179,105.41013 C459.758213,109.044245 456.33981,108.96916 454.237341,105.305011 C453.537886,103.78697 453.054282,102.179801 452.800402,100.529604 C451.938239,96.7453195 450.773562,96.1596564 447.264405,97.9166457 C442.288058,100.409468 438.582267,104.388974 435.163865,108.593735 C427.218519,118.319054 421.161357,129.42469 417.300443,141.345818 C416.500761,143.991104 416.038342,146.725506 415.924006,149.485033 C415.727372,152.803791 416.634913,153.734845 419.93231,154.365559 C424.878406,155.31163 429.79425,154.650882 434.72522,154.020168 C444.81528,152.638827 454.705505,150.078181 464.190035,146.39153 C465.596723,145.850918 467.21517,144.649558 469,146.571734 Z" id="Path"></path>
                        <path d="M344.952392,141.236073 C345.176325,139.384017 346.648827,137.938212 348.492281,137.760362 C361.067089,134.837772 372.570813,128.406549 381.686239,119.20309 C385.031862,115.877756 387.559099,111.810125 389.066007,107.325226 C392.260907,98.2581544 386.981072,89.7804426 377.471371,89.0550769 C374.25341,88.845573 371.024668,89.2348973 367.94667,90.2035726 C358.496967,93.2259298 351.252194,99.5275444 344.802397,106.826537 C336.269848,116.742945 329.906845,128.359306 326.127983,140.918726 C325.363007,141.160514 324.62803,141.372079 323.803056,141.674315 C318.688217,143.684182 313.633375,145.935839 308.428539,147.719029 C303.43652,149.527188 298.111122,150.208162 292.829029,149.713785 C288.97415,149.275543 287.624192,148.278165 287.084209,144.454884 C286.484266,140.030008 286.123745,135.575521 286.004243,131.111177 C285.809249,125.066462 286.004243,119.021748 285.77925,112.977034 C285.660754,110.082774 285.207709,107.212303 284.429292,104.423763 C282.164364,96.0367219 274.484605,93.3014887 267.61482,98.5906137 C264.991503,100.873591 262.549155,103.359481 260.31005,106.025612 C259.560073,106.811425 258.915094,107.718132 258.225115,108.564392 C257.908783,107.931249 257.854835,107.197492 258.07512,106.524301 C258.7051,104.453987 259.455077,102.413896 260.040058,100.328469 C260.724587,98.6872449 260.079573,96.7897093 258.540105,95.9158276 C256.853813,95.1001491 254.830359,95.600302 253.710257,97.1096587 C253.111337,97.8543332 252.607425,98.6717033 252.210304,99.5426562 C250.860346,102.565013 249.375393,105.421141 248.295427,108.488833 C243.900565,121.001392 239.655698,133.574398 235.275836,146.102068 C234.930991,147.486246 234.158942,148.724419 233.070905,149.638226 C228.183214,152.728633 222.722707,154.785221 217.021409,155.68294 C211.396586,156.347859 208.921663,154.519333 208.021692,148.91286 C207.419566,145.100786 207.048889,141.255246 206.911726,137.39768 C206.671734,131.957437 206.911726,126.502082 206.521739,121.076951 C206.351274,117.584312 205.725939,114.129391 204.661797,110.800937 C202.246873,103.789068 195.062098,101.930318 189.257281,106.463854 C188.507304,107.068326 187.667331,107.582126 186.872356,108.141262 C186.855655,106.848669 187.090048,105.565263 187.562334,104.363316 C188.225257,102.42858 188.751554,100.449036 189.137284,98.4394959 C189.658142,96.2181773 188.492391,93.9462415 186.392371,93.0899237 C184.48743,92.3343344 182.402496,93.0899237 180.782547,95.2357973 C180.349251,95.8064568 179.981894,96.4249908 179.687581,97.0794352 C178.577616,99.6333269 177.407653,102.156995 176.477682,104.771334 C170.557868,121.343926 164.673053,137.96689 158.823236,154.640227 C158.448986,155.660012 158.19231,156.719753 158.05826,157.79859 C157.712758,160.154458 158.928294,162.462891 161.058166,163.495734 C163.338059,164.467465 165.979417,163.858512 167.61296,161.984555 C168.069247,161.428494 168.466406,160.825764 168.797923,160.186253 C171.332844,155.531823 173.777767,150.816945 176.402684,146.207851 C180.137567,139.604 183.992446,133.075709 187.847325,126.562529 C188.499699,125.605888 189.205829,124.687608 189.962259,123.812184 L190.742234,124.159755 C190.742234,125.21758 190.592239,126.290517 190.532241,127.363454 C190.262249,132.184113 189.827263,137.004773 189.797264,141.840545 C189.483337,148.278211 190.980785,154.674282 194.117128,160.292035 C198.549857,167.824129 207.45783,171.409023 215.821447,169.026647 C219.935109,167.669104 223.793546,165.625838 227.236088,162.981933 C228.196058,162.317014 229.141028,161.636984 230.37099,160.7605 C230.440538,161.985718 230.606048,163.203486 230.865974,164.402441 C231.301956,166.405239 232.853578,167.970124 234.841038,168.411481 C236.828497,168.852839 238.889349,168.09018 240.120684,166.457644 C240.776096,165.593149 241.329777,164.654988 241.770632,163.661963 C243.195587,160.473376 244.530545,157.239454 245.9705,154.050867 C250.729019,142.831366 256.657097,132.152899 263.654945,122.195223 C265.1874,119.747067 267.161361,117.609691 269.474762,115.893608 C269.21977,118.220823 269.039776,119.837785 268.844782,121.439634 C268.334798,125.761605 267.704818,130.068463 267.344829,134.405546 C266.691057,139.819696 266.903753,145.304459 267.974809,150.650716 C270.059744,159.717787 275.219582,165.868284 284.474291,167.893263 C290.554789,169.224633 296.901216,168.502396 302.533724,165.83806 C310.228482,162.256567 316.243293,156.619871 321.838118,150.424039 C322.663092,149.50222 323.473066,148.565289 324.298041,147.628359 C324.771423,148.870958 324.990803,150.197089 324.94302,151.527199 C324.994807,155.306713 326.15321,158.986669 328.272916,162.105449 C334.377724,170.49249 342.897457,173.635742 352.827145,172.895264 C363.971795,172.064116 373.826485,167.394574 383.216191,161.561425 C383.734446,161.261718 384.18826,160.861017 384.551149,160.382706 C385.376123,159.294657 384.971135,158.13105 383.606178,158.055491 C381.81435,157.964642 380.018115,158.025301 378.236347,158.236832 C370.735321,159.275824 363.119531,159.133075 355.662056,157.813702 C352.557046,157.018976 349.541305,155.904929 346.662338,154.489109 C344.391649,153.575885 343.118871,151.133097 343.662433,148.731519 C343.992422,146.192739 344.547405,143.74463 344.952392,141.236073 Z M352.66215,122.25567 C356.129124,115.904053 360.70178,110.232473 366.161726,105.511812 C368.562337,103.287996 371.46677,101.690017 374.62146,100.857382 C376.053198,100.324726 377.662426,100.789695 378.596336,102.005877 C378.263265,104.845302 377.02052,107.497941 375.056447,109.56177 C370.136601,115.379808 363.8218,119.29376 357.267005,122.875253 C355.52706,123.812184 353.712117,124.628221 351.942173,125.489592 L351.417189,124.945568 C351.779755,124.025243 352.195453,123.127076 352.66215,122.25567 Z" id="Shape"></path>
                        <path d="M155.83688,111.706073 C153.816467,104.583998 149.476321,99.60913 142.247732,97.6433768 C140.593569,97.371666 139.127871,96.411828 138.206906,94.9971705 C136.862011,92.730988 134.238086,91.5817605 131.68172,92.1392677 C129.542865,92.4020569 127.493599,93.1629699 125.695311,94.362081 C122.224308,96.9035455 118.997411,99.7690095 116.057193,102.920668 C108.76874,110.950014 103.964647,120.52172 100.26804,130.668031 C97.2911936,138.342781 95.5139376,146.43865 95,154.665342 C95.2544224,157.069609 95.3442185,159.504119 95.8081652,161.847902 C98.1727967,173.521452 108.050371,179.554802 119.22999,175.971082 C122.318636,175.004898 125.234069,173.544831 127.865385,171.646425 C141.251833,162.068929 150.940559,148.101192 155.283137,132.119664 C157.365756,125.503437 157.557696,118.427623 155.83688,111.706073 Z M141.693989,124.559075 C138.880373,136.534828 132.23661,147.238911 122.791903,155.013129 C120.928286,156.528959 118.881485,157.799242 116.700732,158.793423 C114.03678,160.063602 113.019091,159.428513 112.435416,156.525247 C112.180993,155.239946 112.166027,153.894162 112.046299,152.729831 C113.348343,139.12077 116.82046,126.434101 124.019117,114.926884 C126.214477,111.061862 130.236561,108.623593 134.644993,108.485262 C139.015071,108.318929 141.91848,110.5115 142.337528,114.866399 C142.659346,118.110946 142.441833,121.387028 141.693989,124.559075 L141.693989,124.559075 Z" id="Shape"></path>
                    </g>
                    <g id="Logo" opacity="0.804757254" transform="translate(189.000000, 19.000000)">
                        <path d="M13.9483953,27.3688043 C13.9483953,28.9203338 13.7567984,30.3192329 13.3735988,31.5655435 C12.9903992,32.8118541 12.4188018,33.8737456 11.6587892,34.75125 C10.8987767,35.6287544 9.95037196,36.3027694 8.81354651,36.7733152 C7.67672106,37.243861 6.3547023,37.4791304 4.84745058,37.4791304 C4.15769132,37.4791304 3.48071553,37.4377993 2.81650291,37.3551359 C2.15229028,37.2724724 1.4561548,37.1421205 0.728075581,36.9640761 L0.996313953,33.9119022 C1.02186059,33.6321182 1.1272389,33.4063867 1.31245203,33.2347011 C1.49766517,33.0630154 1.76909414,32.9771739 2.12674709,32.9771739 C2.34389353,32.9771739 2.62809563,33.0216843 2.97936192,33.1107065 C3.33062821,33.1997287 3.77449441,33.2442391 4.31097384,33.2442391 C5.03905306,33.2442391 5.68409603,33.1393217 6.24612209,32.9294837 C6.80814816,32.7196457 7.27756062,32.3858175 7.65437355,31.9279891 C8.03118648,31.4701608 8.31538858,30.8756287 8.50698837,30.144375 C8.69858817,29.4131213 8.79438663,28.5260922 8.79438663,27.4832609 L8.79438663,9.5898913 L13.9483953,9.5898913 L13.9483953,27.3688043 Z M24.8695291,27.4641848 L24.8695291,37.173913 L19.7155203,37.173913 L19.7155203,9.5898913 L28.7398256,9.5898913 C30.5919569,9.5898913 32.1949845,9.80608479 33.5489564,10.2384783 C34.9029283,10.6708717 36.020577,11.2749418 36.901936,12.0507065 C37.7832951,12.8264713 38.4347246,13.7548316 38.8562442,14.8358152 C39.2777637,15.9167989 39.4885203,17.0995044 39.4885203,18.3839674 C39.4885203,19.7193002 39.2649906,20.9433368 38.8179244,22.0561141 C38.3708582,23.1688914 37.700269,24.1258656 36.8061366,24.9270652 C35.9120043,25.7282649 34.7943555,26.3514108 33.453157,26.7965217 C32.1119584,27.2416327 30.5408637,27.4641848 28.7398256,27.4641848 L24.8695291,27.4641848 Z M24.8695291,23.4582065 L28.7398256,23.4582065 C29.6850512,23.4582065 30.508918,23.3405718 31.2114506,23.1052989 C31.9139832,22.870026 32.4951605,22.5330185 32.955,22.0942663 C33.4148395,21.6555141 33.759714,21.121389 33.9896337,20.491875 C34.2195535,19.862361 34.3345116,19.1597321 34.3345116,18.3839674 C34.3345116,17.646355 34.2195535,16.9786986 33.9896337,16.3809783 C33.759714,15.7832579 33.4148395,15.2745673 32.955,14.8548913 C32.4951605,14.4352153 31.9139832,14.1141044 31.2114506,13.8915489 C30.508918,13.6689935 29.6850512,13.5577174 28.7398256,13.5577174 L24.8695291,13.5577174 L24.8695291,23.4582065 Z M65.737561,14.6069022 C65.5970545,14.8866862 65.4341971,15.0838038 65.248984,15.1982609 C65.0637709,15.312718 64.8434344,15.3699457 64.587968,15.3699457 C64.3325016,15.3699457 64.0451062,15.2713869 63.7257733,15.0742663 C63.4064403,14.8771458 63.029633,14.6577729 62.5953401,14.4161413 C62.1610472,14.1745097 61.6533154,13.9551369 61.0721294,13.7580163 C60.4909433,13.5608958 59.8043877,13.462337 59.0124419,13.462337 C58.297136,13.462337 57.674446,13.5481785 57.1443532,13.7198641 C56.6142604,13.8915498 56.1672009,14.1299985 55.8031613,14.4352174 C55.4391217,14.7404363 55.1676928,15.1060577 54.9888663,15.5320924 C54.8100398,15.9581271 54.7206279,16.4254866 54.7206279,16.9341848 C54.7206279,17.582775 54.902645,18.1232587 55.2666846,18.5556522 C55.6307242,18.9880456 56.1129098,19.3568463 56.7132558,19.6620652 C57.3136018,19.9672841 57.9969642,20.2407053 58.7633634,20.482337 C59.5297626,20.7239686 60.3121166,20.9814932 61.1104491,21.2549185 C61.9087816,21.5283438 62.6911357,21.8462754 63.4575349,22.2087228 C64.2239341,22.5711703 64.9072964,23.0289918 65.5076424,23.5822011 C66.1079885,24.1354104 66.5901741,24.8126047 66.9542137,25.6138043 C67.3182533,26.415004 67.5002703,27.3878747 67.5002703,28.5324457 C67.5002703,29.7787562 67.2863205,30.9455652 66.8584142,32.0329076 C66.430508,33.12025 65.8046248,34.0676862 64.9807456,34.8752446 C64.1568665,35.682803 63.1509827,36.3186662 61.963064,36.7828533 C60.7751452,37.2470404 59.4148071,37.4791304 57.8820087,37.4791304 C57.0006497,37.4791304 56.132077,37.3932889 55.2762645,37.2216033 C54.4204521,37.0499176 53.5997786,36.8051103 52.8142195,36.4871739 C52.0286603,36.1692375 51.2942055,35.7877196 50.6108328,35.3426087 C49.9274602,34.8974978 49.3175434,34.4015245 48.781064,33.8546739 L50.2755349,31.3938587 C50.4160414,31.2158143 50.5852853,31.0663865 50.7832718,30.9455707 C50.9812583,30.8247548 51.2015947,30.7643478 51.4442878,30.7643478 C51.7636208,30.7643478 52.1084952,30.8946998 52.4789215,31.1554076 C52.8493478,31.4161154 53.2868274,31.7054332 53.7913735,32.0233696 C54.2959197,32.3413059 54.8898701,32.6306237 55.5732427,32.8913315 C56.2566153,33.1520393 57.0772888,33.2823913 58.0352878,33.2823913 C59.5042196,33.2823913 60.641028,32.9358459 61.4457471,32.2427446 C62.2504662,31.5496433 62.6528198,30.5545174 62.6528198,29.257337 C62.6528198,28.532442 62.4708027,27.9410892 62.1067631,27.4832609 C61.7427235,27.0254325 61.2605379,26.6407353 60.6601919,26.3291576 C60.0598458,26.01758 59.3764835,25.7536967 58.6100843,25.5375 C57.8436851,25.3213033 57.0645243,25.0860339 56.2725785,24.8316848 C55.4806327,24.5773357 54.7014719,24.2721213 53.9350727,23.9160326 C53.1686735,23.5599439 52.4853111,23.0957637 51.8849651,22.5234783 C51.2846191,21.9511928 50.8024335,21.2358467 50.4383939,20.3774185 C50.0743543,19.5189903 49.8923372,18.460278 49.8923372,17.20125 C49.8923372,16.1965711 50.093514,15.2173417 50.4958735,14.2635326 C50.8982331,13.3097235 51.485797,12.4640254 52.2585828,11.726413 C53.0313687,10.9888007 53.9797734,10.3974479 55.1038256,9.95233696 C56.2278777,9.50722604 57.5115771,9.28467391 58.9549622,9.28467391 C60.5899471,9.28467391 62.0971762,9.5390192 63.4766948,10.0477174 C64.8562133,10.5564156 66.0313411,11.2685824 67.0021134,12.1842391 L65.737561,14.6069022 Z M77.6358488,37.4791304 C75.9369973,37.4791304 74.6277517,36.9990537 73.7080727,36.0388859 C72.7883937,35.078718 72.328561,33.7529432 72.328561,32.0615217 L72.328561,21.1309239 L70.3359331,21.1309239 C70.0804667,21.1309239 69.8601303,21.0482617 69.6749172,20.8829348 C69.489704,20.7176079 69.3970988,20.4696212 69.3970988,20.1389674 L69.3970988,18.2695109 L72.5584797,17.7544565 L73.5547936,12.4131522 C73.6058869,12.1588031 73.7240383,11.9616855 73.9092515,11.8217935 C74.0944646,11.6819015 74.3275742,11.6119565 74.6085872,11.6119565 L77.0610523,11.6119565 L77.0610523,17.7735326 L82.2342209,17.7735326 L82.2342209,21.1309239 L77.0610523,21.1309239 L77.0610523,31.7372283 C77.0610523,32.3476661 77.2143299,32.8245635 77.5208895,33.1679348 C77.8274492,33.5113061 78.2361893,33.6829891 78.7471221,33.6829891 C79.0409084,33.6829891 79.2867912,33.6480167 79.4847776,33.5780707 C79.6827641,33.5081247 79.8552013,33.4350004 80.0020945,33.3586957 C80.1489877,33.2823909 80.2799122,33.2092667 80.3948721,33.1393207 C80.509832,33.0693747 80.6247901,33.0344022 80.73975,33.0344022 C80.8802565,33.0344022 80.9952147,33.0693747 81.0846279,33.1393207 C81.1740411,33.2092667 81.2698396,33.3141841 81.3720262,33.4540761 L82.7898576,35.7432065 C82.1000983,36.315492 81.3081644,36.747879 80.414032,37.0403804 C79.5198996,37.3328819 78.5938478,37.4791304 77.6358488,37.4791304 Z M86.008718,37.173913 L86.008718,17.6018478 L88.7869012,17.6018478 C89.2722873,17.6018478 89.6107752,17.6908687 89.802375,17.868913 C89.9939748,18.0469574 90.1217061,18.3521718 90.1855727,18.7845652 L90.4729709,21.15 C91.1755035,19.9418418 91.9993703,18.988047 92.9445959,18.288587 C93.8898216,17.5891269 94.9499912,17.2394022 96.1251366,17.2394022 C97.0959089,17.2394022 97.900616,17.4619543 98.539282,17.9070652 L97.9261657,21.4361413 C97.8878457,21.6650555 97.8048204,21.8272006 97.6770872,21.9225815 C97.549354,22.0179624 97.3769168,22.0656522 97.1597703,22.0656522 C96.9681706,22.0656522 96.7063214,22.0211417 96.3742151,21.9321196 C96.0421088,21.8430974 95.6014359,21.798587 95.0521831,21.798587 C94.0686375,21.798587 93.2256111,22.0688288 92.5230785,22.6093207 C91.8205459,23.1498125 91.2265955,23.9414622 90.7412093,24.9842935 L90.7412093,37.173913 L86.008718,37.173913 Z M106.701392,17.6018478 L106.701392,37.173913 L101.968901,37.173913 L101.968901,17.6018478 L106.701392,17.6018478 Z M107.410308,11.8980978 C107.410308,12.3050564 107.327283,12.6865743 107.16123,13.042663 C106.995176,13.3987518 106.77484,13.7103248 106.500214,13.9773913 C106.225587,14.2444579 105.903066,14.457472 105.53264,14.6164402 C105.162213,14.7754084 104.766246,14.8548913 104.344727,14.8548913 C103.935981,14.8548913 103.549593,14.7754084 103.185554,14.6164402 C102.821514,14.457472 102.505379,14.2444579 102.23714,13.9773913 C101.9689,13.7103248 101.75495,13.3987518 101.595283,13.042663 C101.435617,12.6865743 101.355785,12.3050564 101.355785,11.8980978 C101.355785,11.4784218 101.435617,11.0841866 101.595283,10.7153804 C101.75495,10.3465742 101.9689,10.0286426 102.23714,9.76157609 C102.505379,9.49450953 102.821514,9.28149536 103.185554,9.12252717 C103.549593,8.96355899 103.935981,8.88407609 104.344727,8.88407609 C104.766246,8.88407609 105.162213,8.96355899 105.53264,9.12252717 C105.903066,9.28149536 106.225587,9.49450953 106.500214,9.76157609 C106.77484,10.0286426 106.995176,10.3465742 107.16123,10.7153804 C107.327283,11.0841866 107.410308,11.4784218 107.410308,11.8980978 Z M112.047,43.5644022 L112.047,17.6018478 L114.940142,17.6018478 C115.246702,17.6018478 115.508551,17.6717928 115.725698,17.8116848 C115.942844,17.9515768 116.083349,18.1677703 116.147215,18.4602717 L116.530413,20.2725 C117.322359,19.3695607 118.232444,18.638318 119.260696,18.07875 C120.288948,17.519182 121.492816,17.2394022 122.872334,17.2394022 C123.945293,17.2394022 124.925631,17.4619543 125.813376,17.9070652 C126.701122,18.3521761 127.46751,18.9975773 128.112562,19.843288 C128.757615,20.6889988 129.255767,21.7318145 129.607033,22.9717663 C129.9583,24.2117182 130.13393,25.6328724 130.13393,27.2352717 C130.13393,28.6977791 129.935947,30.0521677 129.539974,31.2984783 C129.144001,32.5447888 128.57879,33.6257563 127.844324,34.541413 C127.109858,35.4570698 126.222126,36.1724159 125.1811,36.6874728 C124.140075,37.2025297 122.974527,37.4600543 121.684422,37.4600543 C120.573143,37.4600543 119.631125,37.2915506 118.858339,36.954538 C118.085553,36.6175255 117.392611,36.150166 116.779491,35.5524457 L116.779491,41.5955364 L112.047,43.5644022 Z M121.243744,20.9592391 C120.260199,20.9592391 119.420365,21.1658947 118.724219,21.579212 C118.028074,21.9925292 117.379837,22.5743441 116.779491,23.3246739 L116.779491,32.0996739 C117.315971,32.7609816 117.900341,33.2219824 118.532621,33.4826902 C119.1649,33.743398 119.845069,33.87375 120.573148,33.87375 C121.288454,33.87375 121.93669,33.7402187 122.517876,33.4731522 C123.099062,33.2060856 123.590828,32.7991332 123.993188,32.2522826 C124.395547,31.705432 124.705295,31.0155205 124.922442,30.1825272 C125.139588,29.3495339 125.24816,28.3671252 125.24816,27.2352717 C125.24816,26.0907008 125.155555,25.1210094 124.970342,24.3261685 C124.785128,23.5313275 124.520086,22.8859264 124.175206,22.3899457 C123.830327,21.8939649 123.412007,21.5315229 122.920234,21.3026087 C122.428461,21.0736945 121.869637,20.9592391 121.243744,20.9592391 Z M141.840619,17.2966304 C143.079631,17.2966304 144.219633,17.493748 145.260658,17.8879891 C146.301684,18.2822302 147.198996,18.8576864 147.952622,19.614375 C148.706248,20.3710636 149.293812,21.2994238 149.715331,22.3994837 C150.136851,23.4995435 150.347608,24.7553734 150.347608,26.1670109 C150.347608,26.5230996 150.331641,26.818776 150.299708,27.0540489 C150.267775,27.2893218 150.210295,27.4737222 150.127269,27.6072554 C150.044242,27.7407887 149.932477,27.8361682 149.791971,27.8933967 C149.651464,27.9506253 149.472641,27.9792391 149.255494,27.9792391 L137.108128,27.9792391 C137.248634,29.988597 137.791492,31.4637996 138.736718,32.4048913 C139.681944,33.345983 140.93371,33.8165217 142.492055,33.8165217 C143.258454,33.8165217 143.919464,33.7275009 144.475103,33.5494565 C145.030743,33.3714122 145.516121,33.1742946 145.931254,32.9580978 C146.346387,32.7419011 146.710421,32.5447835 147.023368,32.3667391 C147.336314,32.1886948 147.639676,32.0996739 147.933462,32.0996739 C148.125062,32.0996739 148.291113,32.1378257 148.431619,32.2141304 C148.572126,32.2904352 148.69347,32.3985319 148.795657,32.5384239 L150.175169,34.2552717 C149.651462,34.8657096 149.063899,35.3775795 148.412459,35.7908967 C147.76102,36.204214 147.080851,36.5348629 146.371932,36.7828533 C145.663012,37.0308436 144.941331,37.205706 144.206865,37.3074457 C143.472399,37.4091853 142.760297,37.4600543 142.070538,37.4600543 C140.703793,37.4600543 139.432866,37.2343229 138.257721,36.7828533 C137.082576,36.3313836 136.060725,35.6637272 135.19214,34.7798641 C134.323554,33.896001 133.640191,32.8023163 133.142032,31.4987772 C132.643873,30.195238 132.394797,28.6850629 132.394797,26.9682065 C132.394797,25.6328738 132.61194,24.3770439 133.046233,23.2006793 C133.480525,22.0243148 134.103215,21.000575 134.914321,20.1294293 C135.725427,19.2582837 136.715344,18.5683721 137.884103,18.0596739 C139.052862,17.5509757 140.371687,17.2966304 141.840619,17.2966304 Z M141.936419,20.6730978 C140.5569,20.6730978 139.477571,21.0609744 138.698398,21.8367391 C137.919226,22.6125039 137.421074,23.7125472 137.203927,25.1369022 L146.094113,25.1369022 C146.094113,24.5264643 146.011088,23.9510081 145.845035,23.4105163 C145.678982,22.8700245 145.423519,22.3963064 145.07864,21.9893478 C144.73376,21.5823893 144.299474,21.2612784 143.775767,21.0260054 C143.252061,20.7907325 142.638951,20.6730978 141.936419,20.6730978 Z M165.867113,21.4170652 C165.73938,21.6205445 165.605262,21.7636137 165.464756,21.8462772 C165.324249,21.9289406 165.145426,21.9702717 164.928279,21.9702717 C164.698359,21.9702717 164.452477,21.9066854 164.190624,21.7795109 C163.92877,21.6523363 163.625409,21.5092671 163.280529,21.3502989 C162.935649,21.1913307 162.542876,21.0482615 162.102196,20.921087 C161.661517,20.7939124 161.141012,20.7303261 160.540666,20.7303261 C159.608213,20.7303261 158.873758,20.9274437 158.337279,21.3216848 C157.8008,21.7159259 157.532564,22.2309751 157.532564,22.8668478 C157.532564,23.2865238 157.669875,23.6394279 157.944501,23.9255707 C158.219128,24.2117134 158.583162,24.4628794 159.036615,24.6790761 C159.490068,24.8952728 160.004186,25.0892111 160.578985,25.2608967 C161.153785,25.4325824 161.741349,25.620162 162.341695,25.8236413 C162.942041,26.0271206 163.529605,26.2592107 164.104404,26.5199185 C164.679203,26.7806263 165.193322,27.1112752 165.646775,27.511875 C166.100228,27.9124748 166.464262,28.3925516 166.738888,28.9521196 C167.013514,29.5116876 167.150826,30.1857026 167.150826,30.9741848 C167.150826,31.9152764 166.978388,32.7832297 166.633509,33.5780707 C166.288629,34.3729116 165.784091,35.0596438 165.119878,35.638288 C164.455665,36.2169322 163.634992,36.6683951 162.657833,36.9926902 C161.680674,37.3169853 160.559832,37.4791304 159.295273,37.4791304 C158.618287,37.4791304 157.957278,37.4187234 157.312225,37.2979076 C156.667173,37.1770918 156.047676,37.008588 155.453717,36.7923913 C154.859757,36.5761946 154.310513,36.3218493 153.805967,36.0293478 C153.30142,35.7368464 152.857554,35.4189148 152.474355,35.0755435 L153.566468,33.2823913 C153.706975,33.0661946 153.873025,32.9008701 154.064625,32.786413 C154.256225,32.6719559 154.498914,32.6147283 154.792701,32.6147283 C155.086487,32.6147283 155.364302,32.6973905 155.626156,32.8627174 C155.888009,33.0280443 156.19137,33.206086 156.53625,33.3968478 C156.88113,33.5876096 157.286676,33.7656513 157.752903,33.9309783 C158.219129,34.0963052 158.809886,34.1789674 159.525192,34.1789674 C160.087218,34.1789674 160.569404,34.1122018 160.971763,33.9786685 C161.374123,33.8451352 161.706224,33.6702728 161.968077,33.4540761 C162.22993,33.2378794 162.421527,32.9867134 162.542874,32.7005707 C162.66422,32.4144279 162.724892,32.1187515 162.724892,31.8135326 C162.724892,31.3557042 162.587581,30.9805449 162.312955,30.6880435 C162.038329,30.395542 161.674294,30.1411967 161.220842,29.925 C160.767389,29.7088033 160.250077,29.514865 159.668891,29.3431793 C159.087705,29.1714937 158.493754,28.9839141 157.887022,28.7804348 C157.280289,28.5769555 156.686339,28.3385068 156.105153,28.0650815 C155.523967,27.7916562 155.006655,27.4451108 154.553202,27.0254348 C154.099749,26.6057588 153.735715,26.0907096 153.461089,25.4802717 C153.186462,24.8698339 153.049151,24.1322326 153.049151,23.2674457 C153.049151,22.466246 153.208815,21.7032101 153.528148,20.9783152 C153.847481,20.2534203 154.316894,19.6207364 154.9364,19.0802446 C155.555906,18.5397527 156.32868,18.1073658 157.254746,17.7830707 C158.180811,17.4587756 159.250561,17.2966304 160.464026,17.2966304 C161.817998,17.2966304 163.050605,17.5191826 164.161884,17.9642935 C165.273163,18.4094044 166.199214,18.9943985 166.940067,19.7192935 L165.867113,21.4170652 Z" id="White" fill-rule="nonzero"></path>
                        <rect id="Rectangle" fill-rule="evenodd" x="33.4069767" y="33.2608696" width="10.8081395" height="3.91304348"></rect>
                    </g>
                </g>
            </g>
        </g>
    </g>
</svg>