<?xml version="1.0" encoding="UTF-8"?>
<svg width="48px" height="48px" viewBox="0 0 48 48" version="1.1" xmlns="http://www.w3.org/2000/svg" xmlns:xlink="http://www.w3.org/1999/xlink">
    <!-- Generator: Sketch 54.1 (76490) - https://sketchapp.com -->
    <title>icons8-calendar</title>
    <desc>Created with Sketch.</desc>
    <g id="Page-1" stroke="none" stroke-width="1" fill="none" fill-rule="evenodd">
        <g id="icons8-calendar" fill="#FFFFFF" fill-rule="nonzero">
            <path d="M10,0 L10,8 L14,8 L14,0 L10,0 Z M34,0 L34,8 L38,8 L38,0 L34,0 Z M2,6 C0.898438,6 0,6.898438 0,8 L0,14 C0,15.101562 0.898438,16 2,16 L2,48 L46,48 L46,16 C47.101562,16 48,15.101562 48,14 L48,8 C48,6.898438 47.101562,6 46,6 L40,6 L40,10 L32,10 L32,6 L16,6 L16,10 L8,10 L8,6 L2,6 Z M6,16 L42,16 L42,44 L6,44 L6,16 Z M10,20 L10,24 L14,24 L14,20 L10,20 Z M18,20 L18,24 L22,24 L22,20 L18,20 Z M26,20 L26,24 L30,24 L30,20 L26,20 Z M34,20 L34,24 L38,24 L38,20 L34,20 Z M10,28 L10,32 L14,32 L14,28 L10,28 Z M18,28 L18,32 L22,32 L22,28 L18,28 Z M26,28 L26,32 L30,32 L30,28 L26,28 Z M34,28 L34,32 L38,32 L38,28 L34,28 Z M10,36 L10,40 L14,40 L14,36 L10,36 Z M18,36 L18,40 L22,40 L22,36 L18,36 Z M26,36 L26,40 L30,40 L30,36 L26,36 Z M34,36 L34,40 L38,40 L38,36 L34,36 Z" id="Shape"></path>
        </g>
    </g>
</svg>