<?xml version="1.0" encoding="UTF-8"?>
<svg width="512px" height="512px" viewBox="0 0 512 512" version="1.1" xmlns="http://www.w3.org/2000/svg" xmlns:xlink="http://www.w3.org/1999/xlink">
    <!-- Generator: Sketch 57.1 (83088) - https://sketch.com -->
    <title>facebook</title>
    <desc>Created with Sketch.</desc>
    <g id="Page-1" stroke="none" stroke-width="1" fill="none" fill-rule="evenodd">
        <g id="facebook" fill="#3C5A9A" fill-rule="nonzero">
            <path d="M256,0 C114.623991,0 0,114.623991 0,256 C0,397.376009 114.623991,512 256,512 C397.376009,512 512,397.376009 512,256 C512,114.592411 397.376009,0 256,0 Z M322.175825,255.967368 L280.223556,255.998947 L280.191977,409.598316 L222.623662,409.598316 L222.623662,256 L184.224083,256 L184.224083,203.071761 L222.623662,203.040182 L222.55945,171.872301 C222.55945,128.672643 234.271222,102.400632 285.119426,102.400632 L327.487492,102.400632 L327.487492,155.36045 L300.991266,155.36045 C281.183572,155.36045 280.223556,162.752151 280.223556,176.543956 L280.159345,203.040182 L327.774865,203.040182 L322.175825,255.967368 Z" id="Shape"></path>
        </g>
    </g>
</svg>