<?xml version="1.0" encoding="UTF-8"?>
<svg width="168px" height="36px" viewBox="0 0 168 36" version="1.1" xmlns="http://www.w3.org/2000/svg" xmlns:xlink="http://www.w3.org/1999/xlink">
    <!-- Generator: Sketch 57.1 (83088) - https://sketch.com -->
    <title>Logo</title>
    <desc>Created with Sketch.</desc>
    <g id="Page-1" stroke="none" stroke-width="1" fill="none" fill-rule="evenodd" opacity="0.804757254">
        <g id="home" transform="translate(-616.000000, -276.000000)" fill="#FFFFFF">
            <g id="hero">
                <g id="Logo" transform="translate(616.000000, 268.000000)">
                    <path d="M13.9483953,27.3688043 C13.9483953,28.9203338 13.7567984,30.3192329 13.3735988,31.5655435 C12.9903992,32.8118541 12.4188018,33.8737456 11.6587892,34.75125 C10.8987767,35.6287544 9.95037196,36.3027694 8.81354651,36.7733152 C7.67672106,37.243861 6.3547023,37.4791304 4.84745058,37.4791304 C4.15769132,37.4791304 3.48071553,37.4377993 2.81650291,37.3551359 C2.15229028,37.2724724 1.4561548,37.1421205 0.728075581,36.9640761 L0.996313953,33.9119022 C1.02186059,33.6321182 1.1272389,33.4063867 1.31245203,33.2347011 C1.49766517,33.0630154 1.76909414,32.9771739 2.12674709,32.9771739 C2.34389353,32.9771739 2.62809563,33.0216843 2.97936192,33.1107065 C3.33062821,33.1997287 3.77449441,33.2442391 4.31097384,33.2442391 C5.03905306,33.2442391 5.68409603,33.1393217 6.24612209,32.9294837 C6.80814816,32.7196457 7.27756062,32.3858175 7.65437355,31.9279891 C8.03118648,31.4701608 8.31538858,30.8756287 8.50698837,30.144375 C8.69858817,29.4131213 8.79438663,28.5260922 8.79438663,27.4832609 L8.79438663,9.5898913 L13.9483953,9.5898913 L13.9483953,27.3688043 Z M24.8695291,27.4641848 L24.8695291,37.173913 L19.7155203,37.173913 L19.7155203,9.5898913 L28.7398256,9.5898913 C30.5919569,9.5898913 32.1949845,9.80608479 33.5489564,10.2384783 C34.9029283,10.6708717 36.020577,11.2749418 36.901936,12.0507065 C37.7832951,12.8264713 38.4347246,13.7548316 38.8562442,14.8358152 C39.2777637,15.9167989 39.4885203,17.0995044 39.4885203,18.3839674 C39.4885203,19.7193002 39.2649906,20.9433368 38.8179244,22.0561141 C38.3708582,23.1688914 37.700269,24.1258656 36.8061366,24.9270652 C35.9120043,25.7282649 34.7943555,26.3514108 33.453157,26.7965217 C32.1119584,27.2416327 30.5408637,27.4641848 28.7398256,27.4641848 L24.8695291,27.4641848 Z M24.8695291,23.4582065 L28.7398256,23.4582065 C29.6850512,23.4582065 30.508918,23.3405718 31.2114506,23.1052989 C31.9139832,22.870026 32.4951605,22.5330185 32.955,22.0942663 C33.4148395,21.6555141 33.759714,21.121389 33.9896337,20.491875 C34.2195535,19.862361 34.3345116,19.1597321 34.3345116,18.3839674 C34.3345116,17.646355 34.2195535,16.9786986 33.9896337,16.3809783 C33.759714,15.7832579 33.4148395,15.2745673 32.955,14.8548913 C32.4951605,14.4352153 31.9139832,14.1141044 31.2114506,13.8915489 C30.508918,13.6689935 29.6850512,13.5577174 28.7398256,13.5577174 L24.8695291,13.5577174 L24.8695291,23.4582065 Z M65.737561,14.6069022 C65.5970545,14.8866862 65.4341971,15.0838038 65.248984,15.1982609 C65.0637709,15.312718 64.8434344,15.3699457 64.587968,15.3699457 C64.3325016,15.3699457 64.0451062,15.2713869 63.7257733,15.0742663 C63.4064403,14.8771458 63.029633,14.6577729 62.5953401,14.4161413 C62.1610472,14.1745097 61.6533154,13.9551369 61.0721294,13.7580163 C60.4909433,13.5608958 59.8043877,13.462337 59.0124419,13.462337 C58.297136,13.462337 57.674446,13.5481785 57.1443532,13.7198641 C56.6142604,13.8915498 56.1672009,14.1299985 55.8031613,14.4352174 C55.4391217,14.7404363 55.1676928,15.1060577 54.9888663,15.5320924 C54.8100398,15.9581271 54.7206279,16.4254866 54.7206279,16.9341848 C54.7206279,17.582775 54.902645,18.1232587 55.2666846,18.5556522 C55.6307242,18.9880456 56.1129098,19.3568463 56.7132558,19.6620652 C57.3136018,19.9672841 57.9969642,20.2407053 58.7633634,20.482337 C59.5297626,20.7239686 60.3121166,20.9814932 61.1104491,21.2549185 C61.9087816,21.5283438 62.6911357,21.8462754 63.4575349,22.2087228 C64.2239341,22.5711703 64.9072964,23.0289918 65.5076424,23.5822011 C66.1079885,24.1354104 66.5901741,24.8126047 66.9542137,25.6138043 C67.3182533,26.415004 67.5002703,27.3878747 67.5002703,28.5324457 C67.5002703,29.7787562 67.2863205,30.9455652 66.8584142,32.0329076 C66.430508,33.12025 65.8046248,34.0676862 64.9807456,34.8752446 C64.1568665,35.682803 63.1509827,36.3186662 61.963064,36.7828533 C60.7751452,37.2470404 59.4148071,37.4791304 57.8820087,37.4791304 C57.0006497,37.4791304 56.132077,37.3932889 55.2762645,37.2216033 C54.4204521,37.0499176 53.5997786,36.8051103 52.8142195,36.4871739 C52.0286603,36.1692375 51.2942055,35.7877196 50.6108328,35.3426087 C49.9274602,34.8974978 49.3175434,34.4015245 48.781064,33.8546739 L50.2755349,31.3938587 C50.4160414,31.2158143 50.5852853,31.0663865 50.7832718,30.9455707 C50.9812583,30.8247548 51.2015947,30.7643478 51.4442878,30.7643478 C51.7636208,30.7643478 52.1084952,30.8946998 52.4789215,31.1554076 C52.8493478,31.4161154 53.2868274,31.7054332 53.7913735,32.0233696 C54.2959197,32.3413059 54.8898701,32.6306237 55.5732427,32.8913315 C56.2566153,33.1520393 57.0772888,33.2823913 58.0352878,33.2823913 C59.5042196,33.2823913 60.641028,32.9358459 61.4457471,32.2427446 C62.2504662,31.5496433 62.6528198,30.5545174 62.6528198,29.257337 C62.6528198,28.532442 62.4708027,27.9410892 62.1067631,27.4832609 C61.7427235,27.0254325 61.2605379,26.6407353 60.6601919,26.3291576 C60.0598458,26.01758 59.3764835,25.7536967 58.6100843,25.5375 C57.8436851,25.3213033 57.0645243,25.0860339 56.2725785,24.8316848 C55.4806327,24.5773357 54.7014719,24.2721213 53.9350727,23.9160326 C53.1686735,23.5599439 52.4853111,23.0957637 51.8849651,22.5234783 C51.2846191,21.9511928 50.8024335,21.2358467 50.4383939,20.3774185 C50.0743543,19.5189903 49.8923372,18.460278 49.8923372,17.20125 C49.8923372,16.1965711 50.093514,15.2173417 50.4958735,14.2635326 C50.8982331,13.3097235 51.485797,12.4640254 52.2585828,11.726413 C53.0313687,10.9888007 53.9797734,10.3974479 55.1038256,9.95233696 C56.2278777,9.50722604 57.5115771,9.28467391 58.9549622,9.28467391 C60.5899471,9.28467391 62.0971762,9.5390192 63.4766948,10.0477174 C64.8562133,10.5564156 66.0313411,11.2685824 67.0021134,12.1842391 L65.737561,14.6069022 Z M77.6358488,37.4791304 C75.9369973,37.4791304 74.6277517,36.9990537 73.7080727,36.0388859 C72.7883937,35.078718 72.328561,33.7529432 72.328561,32.0615217 L72.328561,21.1309239 L70.3359331,21.1309239 C70.0804667,21.1309239 69.8601303,21.0482617 69.6749172,20.8829348 C69.489704,20.7176079 69.3970988,20.4696212 69.3970988,20.1389674 L69.3970988,18.2695109 L72.5584797,17.7544565 L73.5547936,12.4131522 C73.6058869,12.1588031 73.7240383,11.9616855 73.9092515,11.8217935 C74.0944646,11.6819015 74.3275742,11.6119565 74.6085872,11.6119565 L77.0610523,11.6119565 L77.0610523,17.7735326 L82.2342209,17.7735326 L82.2342209,21.1309239 L77.0610523,21.1309239 L77.0610523,31.7372283 C77.0610523,32.3476661 77.2143299,32.8245635 77.5208895,33.1679348 C77.8274492,33.5113061 78.2361893,33.6829891 78.7471221,33.6829891 C79.0409084,33.6829891 79.2867912,33.6480167 79.4847776,33.5780707 C79.6827641,33.5081247 79.8552013,33.4350004 80.0020945,33.3586957 C80.1489877,33.2823909 80.2799122,33.2092667 80.3948721,33.1393207 C80.509832,33.0693747 80.6247901,33.0344022 80.73975,33.0344022 C80.8802565,33.0344022 80.9952147,33.0693747 81.0846279,33.1393207 C81.1740411,33.2092667 81.2698396,33.3141841 81.3720262,33.4540761 L82.7898576,35.7432065 C82.1000983,36.315492 81.3081644,36.747879 80.414032,37.0403804 C79.5198996,37.3328819 78.5938478,37.4791304 77.6358488,37.4791304 Z M86.008718,37.173913 L86.008718,17.6018478 L88.7869012,17.6018478 C89.2722873,17.6018478 89.6107752,17.6908687 89.802375,17.868913 C89.9939748,18.0469574 90.1217061,18.3521718 90.1855727,18.7845652 L90.4729709,21.15 C91.1755035,19.9418418 91.9993703,18.988047 92.9445959,18.288587 C93.8898216,17.5891269 94.9499912,17.2394022 96.1251366,17.2394022 C97.0959089,17.2394022 97.900616,17.4619543 98.539282,17.9070652 L97.9261657,21.4361413 C97.8878457,21.6650555 97.8048204,21.8272006 97.6770872,21.9225815 C97.549354,22.0179624 97.3769168,22.0656522 97.1597703,22.0656522 C96.9681706,22.0656522 96.7063214,22.0211417 96.3742151,21.9321196 C96.0421088,21.8430974 95.6014359,21.798587 95.0521831,21.798587 C94.0686375,21.798587 93.2256111,22.0688288 92.5230785,22.6093207 C91.8205459,23.1498125 91.2265955,23.9414622 90.7412093,24.9842935 L90.7412093,37.173913 L86.008718,37.173913 Z M106.701392,17.6018478 L106.701392,37.173913 L101.968901,37.173913 L101.968901,17.6018478 L106.701392,17.6018478 Z M107.410308,11.8980978 C107.410308,12.3050564 107.327283,12.6865743 107.16123,13.042663 C106.995176,13.3987518 106.77484,13.7103248 106.500214,13.9773913 C106.225587,14.2444579 105.903066,14.457472 105.53264,14.6164402 C105.162213,14.7754084 104.766246,14.8548913 104.344727,14.8548913 C103.935981,14.8548913 103.549593,14.7754084 103.185554,14.6164402 C102.821514,14.457472 102.505379,14.2444579 102.23714,13.9773913 C101.9689,13.7103248 101.75495,13.3987518 101.595283,13.042663 C101.435617,12.6865743 101.355785,12.3050564 101.355785,11.8980978 C101.355785,11.4784218 101.435617,11.0841866 101.595283,10.7153804 C101.75495,10.3465742 101.9689,10.0286426 102.23714,9.76157609 C102.505379,9.49450953 102.821514,9.28149536 103.185554,9.12252717 C103.549593,8.96355899 103.935981,8.88407609 104.344727,8.88407609 C104.766246,8.88407609 105.162213,8.96355899 105.53264,9.12252717 C105.903066,9.28149536 106.225587,9.49450953 106.500214,9.76157609 C106.77484,10.0286426 106.995176,10.3465742 107.16123,10.7153804 C107.327283,11.0841866 107.410308,11.4784218 107.410308,11.8980978 Z M112.047,43.5644022 L112.047,17.6018478 L114.940142,17.6018478 C115.246702,17.6018478 115.508551,17.6717928 115.725698,17.8116848 C115.942844,17.9515768 116.083349,18.1677703 116.147215,18.4602717 L116.530413,20.2725 C117.322359,19.3695607 118.232444,18.638318 119.260696,18.07875 C120.288948,17.519182 121.492816,17.2394022 122.872334,17.2394022 C123.945293,17.2394022 124.925631,17.4619543 125.813376,17.9070652 C126.701122,18.3521761 127.46751,18.9975773 128.112562,19.843288 C128.757615,20.6889988 129.255767,21.7318145 129.607033,22.9717663 C129.9583,24.2117182 130.13393,25.6328724 130.13393,27.2352717 C130.13393,28.6977791 129.935947,30.0521677 129.539974,31.2984783 C129.144001,32.5447888 128.57879,33.6257563 127.844324,34.541413 C127.109858,35.4570698 126.222126,36.1724159 125.1811,36.6874728 C124.140075,37.2025297 122.974527,37.4600543 121.684422,37.4600543 C120.573143,37.4600543 119.631125,37.2915506 118.858339,36.954538 C118.085553,36.6175255 117.392611,36.150166 116.779491,35.5524457 L116.779491,41.5955364 L112.047,43.5644022 Z M121.243744,20.9592391 C120.260199,20.9592391 119.420365,21.1658947 118.724219,21.579212 C118.028074,21.9925292 117.379837,22.5743441 116.779491,23.3246739 L116.779491,32.0996739 C117.315971,32.7609816 117.900341,33.2219824 118.532621,33.4826902 C119.1649,33.743398 119.845069,33.87375 120.573148,33.87375 C121.288454,33.87375 121.93669,33.7402187 122.517876,33.4731522 C123.099062,33.2060856 123.590828,32.7991332 123.993188,32.2522826 C124.395547,31.705432 124.705295,31.0155205 124.922442,30.1825272 C125.139588,29.3495339 125.24816,28.3671252 125.24816,27.2352717 C125.24816,26.0907008 125.155555,25.1210094 124.970342,24.3261685 C124.785128,23.5313275 124.520086,22.8859264 124.175206,22.3899457 C123.830327,21.8939649 123.412007,21.5315229 122.920234,21.3026087 C122.428461,21.0736945 121.869637,20.9592391 121.243744,20.9592391 Z M141.840619,17.2966304 C143.079631,17.2966304 144.219633,17.493748 145.260658,17.8879891 C146.301684,18.2822302 147.198996,18.8576864 147.952622,19.614375 C148.706248,20.3710636 149.293812,21.2994238 149.715331,22.3994837 C150.136851,23.4995435 150.347608,24.7553734 150.347608,26.1670109 C150.347608,26.5230996 150.331641,26.818776 150.299708,27.0540489 C150.267775,27.2893218 150.210295,27.4737222 150.127269,27.6072554 C150.044242,27.7407887 149.932477,27.8361682 149.791971,27.8933967 C149.651464,27.9506253 149.472641,27.9792391 149.255494,27.9792391 L137.108128,27.9792391 C137.248634,29.988597 137.791492,31.4637996 138.736718,32.4048913 C139.681944,33.345983 140.93371,33.8165217 142.492055,33.8165217 C143.258454,33.8165217 143.919464,33.7275009 144.475103,33.5494565 C145.030743,33.3714122 145.516121,33.1742946 145.931254,32.9580978 C146.346387,32.7419011 146.710421,32.5447835 147.023368,32.3667391 C147.336314,32.1886948 147.639676,32.0996739 147.933462,32.0996739 C148.125062,32.0996739 148.291113,32.1378257 148.431619,32.2141304 C148.572126,32.2904352 148.69347,32.3985319 148.795657,32.5384239 L150.175169,34.2552717 C149.651462,34.8657096 149.063899,35.3775795 148.412459,35.7908967 C147.76102,36.204214 147.080851,36.5348629 146.371932,36.7828533 C145.663012,37.0308436 144.941331,37.205706 144.206865,37.3074457 C143.472399,37.4091853 142.760297,37.4600543 142.070538,37.4600543 C140.703793,37.4600543 139.432866,37.2343229 138.257721,36.7828533 C137.082576,36.3313836 136.060725,35.6637272 135.19214,34.7798641 C134.323554,33.896001 133.640191,32.8023163 133.142032,31.4987772 C132.643873,30.195238 132.394797,28.6850629 132.394797,26.9682065 C132.394797,25.6328738 132.61194,24.3770439 133.046233,23.2006793 C133.480525,22.0243148 134.103215,21.000575 134.914321,20.1294293 C135.725427,19.2582837 136.715344,18.5683721 137.884103,18.0596739 C139.052862,17.5509757 140.371687,17.2966304 141.840619,17.2966304 Z M141.936419,20.6730978 C140.5569,20.6730978 139.477571,21.0609744 138.698398,21.8367391 C137.919226,22.6125039 137.421074,23.7125472 137.203927,25.1369022 L146.094113,25.1369022 C146.094113,24.5264643 146.011088,23.9510081 145.845035,23.4105163 C145.678982,22.8700245 145.423519,22.3963064 145.07864,21.9893478 C144.73376,21.5823893 144.299474,21.2612784 143.775767,21.0260054 C143.252061,20.7907325 142.638951,20.6730978 141.936419,20.6730978 Z M165.867113,21.4170652 C165.73938,21.6205445 165.605262,21.7636137 165.464756,21.8462772 C165.324249,21.9289406 165.145426,21.9702717 164.928279,21.9702717 C164.698359,21.9702717 164.452477,21.9066854 164.190624,21.7795109 C163.92877,21.6523363 163.625409,21.5092671 163.280529,21.3502989 C162.935649,21.1913307 162.542876,21.0482615 162.102196,20.921087 C161.661517,20.7939124 161.141012,20.7303261 160.540666,20.7303261 C159.608213,20.7303261 158.873758,20.9274437 158.337279,21.3216848 C157.8008,21.7159259 157.532564,22.2309751 157.532564,22.8668478 C157.532564,23.2865238 157.669875,23.6394279 157.944501,23.9255707 C158.219128,24.2117134 158.583162,24.4628794 159.036615,24.6790761 C159.490068,24.8952728 160.004186,25.0892111 160.578985,25.2608967 C161.153785,25.4325824 161.741349,25.620162 162.341695,25.8236413 C162.942041,26.0271206 163.529605,26.2592107 164.104404,26.5199185 C164.679203,26.7806263 165.193322,27.1112752 165.646775,27.511875 C166.100228,27.9124748 166.464262,28.3925516 166.738888,28.9521196 C167.013514,29.5116876 167.150826,30.1857026 167.150826,30.9741848 C167.150826,31.9152764 166.978388,32.7832297 166.633509,33.5780707 C166.288629,34.3729116 165.784091,35.0596438 165.119878,35.638288 C164.455665,36.2169322 163.634992,36.6683951 162.657833,36.9926902 C161.680674,37.3169853 160.559832,37.4791304 159.295273,37.4791304 C158.618287,37.4791304 157.957278,37.4187234 157.312225,37.2979076 C156.667173,37.1770918 156.047676,37.008588 155.453717,36.7923913 C154.859757,36.5761946 154.310513,36.3218493 153.805967,36.0293478 C153.30142,35.7368464 152.857554,35.4189148 152.474355,35.0755435 L153.566468,33.2823913 C153.706975,33.0661946 153.873025,32.9008701 154.064625,32.786413 C154.256225,32.6719559 154.498914,32.6147283 154.792701,32.6147283 C155.086487,32.6147283 155.364302,32.6973905 155.626156,32.8627174 C155.888009,33.0280443 156.19137,33.206086 156.53625,33.3968478 C156.88113,33.5876096 157.286676,33.7656513 157.752903,33.9309783 C158.219129,34.0963052 158.809886,34.1789674 159.525192,34.1789674 C160.087218,34.1789674 160.569404,34.1122018 160.971763,33.9786685 C161.374123,33.8451352 161.706224,33.6702728 161.968077,33.4540761 C162.22993,33.2378794 162.421527,32.9867134 162.542874,32.7005707 C162.66422,32.4144279 162.724892,32.1187515 162.724892,31.8135326 C162.724892,31.3557042 162.587581,30.9805449 162.312955,30.6880435 C162.038329,30.395542 161.674294,30.1411967 161.220842,29.925 C160.767389,29.7088033 160.250077,29.514865 159.668891,29.3431793 C159.087705,29.1714937 158.493754,28.9839141 157.887022,28.7804348 C157.280289,28.5769555 156.686339,28.3385068 156.105153,28.0650815 C155.523967,27.7916562 155.006655,27.4451108 154.553202,27.0254348 C154.099749,26.6057588 153.735715,26.0907096 153.461089,25.4802717 C153.186462,24.8698339 153.049151,24.1322326 153.049151,23.2674457 C153.049151,22.466246 153.208815,21.7032101 153.528148,20.9783152 C153.847481,20.2534203 154.316894,19.6207364 154.9364,19.0802446 C155.555906,18.5397527 156.32868,18.1073658 157.254746,17.7830707 C158.180811,17.4587756 159.250561,17.2966304 160.464026,17.2966304 C161.817998,17.2966304 163.050605,17.5191826 164.161884,17.9642935 C165.273163,18.4094044 166.199214,18.9943985 166.940067,19.7192935 L165.867113,21.4170652 Z" id="White" fill-rule="nonzero"></path>
                    <rect id="Rectangle" fill-rule="evenodd" x="33.4069767" y="33.2608696" width="10.8081395" height="3.91304348"></rect>
                </g>
            </g>
        </g>
    </g>
</svg>